<svg width="16" height="12" viewBox="0 0 16 12" fill="none" xmlns="http://www.w3.org/2000/svg">
<path d="M12.9745 0.690153C13.2274 0.458704 13.5641 0.330749 13.9133 0.333289C14.2626 0.335829 14.5972 0.468665 14.8465 0.703766C15.0958 0.938868 15.2403 1.25785 15.2495 1.59339C15.2587 1.92894 15.132 2.25481 14.8959 2.50225L7.73081 11.114C7.6076 11.2415 7.4589 11.3439 7.29359 11.4149C7.12829 11.486 6.94977 11.5243 6.76872 11.5275C6.58767 11.5307 6.40781 11.4988 6.23988 11.4337C6.07195 11.3686 5.9194 11.2716 5.79137 11.1485L1.03975 6.58205C0.907426 6.46355 0.801291 6.32066 0.727679 6.16188C0.654067 6.00311 0.614484 5.83171 0.611294 5.65792C0.608103 5.48413 0.641369 5.3115 0.709108 5.15033C0.776846 4.98916 0.877669 4.84275 1.00556 4.71984C1.13345 4.59693 1.2858 4.50004 1.4535 4.43494C1.62121 4.36984 1.80084 4.33787 1.98168 4.34093C2.16251 4.344 2.34086 4.38204 2.50607 4.45279C2.67128 4.52353 2.81997 4.62553 2.94327 4.7527L6.70362 8.36481L12.9403 0.728122C12.9516 0.714834 12.9636 0.702158 12.9763 0.690153H12.9745Z" fill="#F5F7F5"/>
</svg>
